<?xml version="1.0" encoding="utf-8"?>
<!-- Generator: Adobe Illustrator 24.2.3, SVG Export Plug-In . SVG Version: 6.00 Build 0)  -->
<svg version="1.1" id="Layer_1" xmlns="http://www.w3.org/2000/svg" xmlns:xlink="http://www.w3.org/1999/xlink" x="0px" y="0px"
	 viewBox="0 0 57.5 57.5" style="enable-background:new 0 0 57.5 57.5;" xml:space="preserve">
<style type="text/css">
	.st0{fill:#023135;}
</style>
<g>
	<g>
		<path class="st0" d="M57.5,28.9c0,7.4,0,14.7,0,22.1c0,0.9-0.1,1.7-0.3,2.6c-0.5,1.9-1.7,3.1-3.6,3.6c-0.8,0.2-1.7,0.3-2.6,0.3
			c-14.9,0-29.7,0-44.6,0c-0.7,0-1.5,0-2.2-0.2c-2.2-0.5-3.6-1.9-4.1-4.1C0,52.6,0,51.8,0,51.1C0,36.2,0,21.3,0,6.5
			C0,5.7,0,5,0.2,4.2C0.7,2,2,0.6,4.2,0.2C5,0,5.7,0,6.5,0c14.9,0,29.7,0,44.6,0c0.4,0,0.7,0,1.1,0c3.1,0.2,5.2,2.2,5.3,5.3
			c0.1,2.2,0,4.3,0,6.5C57.5,17.5,57.5,23.2,57.5,28.9z M5.2,52.2c8.5,0,16.8,0,25.2,0c0-5.9,0-11.7,0-17.7c-2.3,0-4.5,0-6.6,0
			c0-2.7,0-5.1,0-7.8c2.3,0,4.5,0,6.9,0c0-2.8-0.2-5.4,0-8c0.4-3.8,2.4-6.4,6.1-7.6c3.2-1,6.5-0.4,9.7-0.3c0,2.5,0,4.7,0,7.1
			c-1.6,0-3.1-0.1-4.6,0c-2.1,0.1-3.2,1-3.3,3c-0.1,1.9,0,3.8,0,5.9c2.6,0,5.1,0,7.7,0c-0.3,2.7-0.7,5.1-1,7.8c-2.3,0-4.5,0-6.7,0
			c0,6,0,11.8,0,17.6c4.5,0,9,0,13.4,0c0-15.7,0-31.3,0-46.9c-15.7,0-31.3,0-46.9,0C5.2,21,5.2,36.5,5.2,52.2z"/>
	</g>
</g>
</svg>
