<?xml version="1.0" encoding="utf-8"?>
<!-- Generator: Adobe Illustrator 24.2.3, SVG Export Plug-In . SVG Version: 6.00 Build 0)  -->
<svg version="1.1" id="Layer_1" xmlns="http://www.w3.org/2000/svg" xmlns:xlink="http://www.w3.org/1999/xlink" x="0px" y="0px"
	 viewBox="0 0 57.5 57.5" style="enable-background:new 0 0 57.5 57.5;" xml:space="preserve">
<style type="text/css">
	.st0{fill:#023135;}
</style>
<g>
	<g>
		<path class="st0" d="M28.8,0c2.5,0,5,0,7.5,0c1.7,0,3.5,0.1,5.2,0.2c2.3,0.1,4.5,0.6,6.6,1.5c3.8,1.6,6.5,4.4,8,8.3
			c0.6,1.5,0.9,3.1,1.1,4.7c0.1,1.1,0.2,2.3,0.2,3.4c0.2,6.1,0.1,12.2,0.1,18.4c0,1.7-0.1,3.3-0.2,5c-0.1,2.2-0.5,4.4-1.4,6.4
			c-1.7,4-4.6,6.7-8.6,8.3c-1.4,0.5-2.9,0.9-4.4,1c-1.2,0.1-2.3,0.2-3.5,0.2c-3.4,0.2-6.8,0.1-10.3,0.1c-2.7,0-5.3,0-8,0
			c-1.7,0-3.4-0.1-5.1-0.2c-2.2-0.1-4.3-0.5-6.3-1.3c-1.7-0.7-3.2-1.6-4.6-2.9c-1.4-1.3-2.5-2.9-3.3-4.6c-0.7-1.4-1.1-3-1.3-4.5
			c-0.2-1.2-0.3-2.4-0.4-3.6C0,36.4,0,32.5,0,28.6c0-2.3,0-4.5,0-6.8c0-1.9,0.1-3.9,0.2-5.8c0.1-2.1,0.5-4,1.2-6
			c0.8-2.1,2-4,3.7-5.5C6.7,3,8.6,1.9,10.7,1.2c1.4-0.5,2.9-0.8,4.4-0.9c1-0.1,2.1-0.2,3.1-0.2C20.8,0,23.3,0,25.8,0
			C26.8,0,27.8,0,28.8,0C28.8,0,28.8,0,28.8,0z M28.8,52.3L28.8,52.3c1.5,0,3.1,0,4.6,0c2.7,0,5.4-0.1,8.2-0.3
			c1.1-0.1,2.2-0.3,3.3-0.6c1.1-0.4,2.2-0.9,3.2-1.6c1.9-1.4,3.1-3.4,3.6-5.7c0.3-1.3,0.5-2.6,0.5-4c0.1-1.6,0.1-3.2,0.1-4.8
			c0-4.7,0-9.4,0-14.1c0-1.9-0.1-3.9-0.3-5.8c-0.1-1.2-0.4-2.5-0.8-3.6c-0.9-2.5-2.6-4.3-5-5.3c-1.4-0.7-3-1-4.5-1.1
			c-1.5-0.1-3-0.2-4.5-0.2c-1.8-0.1-3.6-0.1-5.5-0.1c-3.4,0-6.8,0-10.3,0c-2,0-4,0.1-5.9,0.3c-1.2,0.1-2.5,0.4-3.6,0.8
			C10,7,8.5,8.2,7.4,9.8c-0.7,1-1.2,2.2-1.5,3.4c-0.3,1.3-0.5,2.6-0.5,4c-0.1,2-0.1,4-0.2,5.9c0,2.8,0,5.6,0,8.4
			c0,3.1,0,6.2,0.2,9.3c0.1,1,0.2,2.1,0.4,3.1C6,45.1,6.4,46.2,7,47.2c1.4,2.4,3.6,3.8,6.2,4.5c1.3,0.3,2.6,0.5,4,0.5
			c1.5,0.1,3,0.1,4.5,0.1C24.1,52.3,26.4,52.3,28.8,52.3z"/>
		<path class="st0" d="M28.8,14c8.2,0,14.8,6.6,14.8,14.8s-6.6,14.8-14.8,14.8c-8.2,0-14.8-6.6-14.8-14.8C14,20.6,20.6,14,28.8,14z
			 M28.8,38.4c5.3,0,9.6-4.3,9.6-9.6c0-5.3-4.3-9.6-9.6-9.6c-5.3,0-9.6,4.3-9.6,9.6C19.2,34.1,23.5,38.3,28.8,38.4z"/>
		<path class="st0" d="M47.6,13.4c0,1.9-1.6,3.4-3.5,3.4s-3.4-1.6-3.4-3.5s1.6-3.4,3.5-3.4C46.1,10,47.6,11.5,47.6,13.4z"/>
	</g>
</g>
</svg>
