<?xml version="1.0" encoding="utf-8"?>
<!-- Generator: Adobe Illustrator 24.2.3, SVG Export Plug-In . SVG Version: 6.00 Build 0)  -->
<svg version="1.1" id="Layer_1" xmlns="http://www.w3.org/2000/svg" xmlns:xlink="http://www.w3.org/1999/xlink" x="0px" y="0px"
	 viewBox="0 0 57.5 57.6" style="enable-background:new 0 0 57.5 57.6;" xml:space="preserve">
<style type="text/css">
	.st0{fill:#023135;}
</style>
<g>
	<g>
		<path class="st0" d="M28.7,57.5c-7.2,0-14.5,0-21.7,0c-1.6,0-3-0.3-4.3-1.3C1,54.9,0.1,53.2,0,51.1c0-0.2,0-0.4,0-0.6
			C0,36,0,21.5,0,7.1C0,5.5,0.3,4,1.3,2.7C2.6,1,4.3,0.1,6.5,0c0.1,0,0.3,0,0.4,0C21.5,0,36,0,50.6,0c1.1,0,2.2,0.2,3.2,0.7
			c2.4,1.2,3.5,3.2,3.7,5.8c0,0.2,0,0.4,0,0.6c0,14.4,0,28.9,0,43.3c0,1.6-0.3,3.1-1.3,4.5c-1.4,1.8-3.2,2.6-5.4,2.7
			c-1.6,0-3.1,0-4.7,0C40.3,57.5,34.5,57.5,28.7,57.5z M52.3,28.7c0-7.2,0-14.5,0-21.7c0-1.3-0.4-1.7-1.7-1.7c-14.6,0-29.2,0-43.7,0
			c-1.2,0-1.7,0.4-1.7,1.7c0,14.6,0,29.2,0,43.7c0,1.3,0.4,1.7,1.7,1.7c0.1,0,0.2,0,0.3,0c14.3,0,28.7,0,43,0c0.3,0,0.5,0,0.7,0
			c0.8-0.1,1.2-0.5,1.3-1.3c0-0.2,0-0.5,0-0.7C52.3,43.1,52.3,35.9,52.3,28.7z"/>
		<path class="st0" d="M47,47.1c-2.5,0-5,0-7.6,0c0-0.3,0-0.6,0-0.9c0-3.7,0-7.4,0-11c0-1.3,0-2.6-0.3-3.9c-0.6-2-1.9-2.9-4-2.8
			c-2.6,0.2-3.8,1.6-4.2,4.1c-0.1,0.9-0.2,1.7-0.2,2.6c0,3.6,0,7.3,0,11c0,0.3,0,0.6,0,0.9c-2.6,0-5.1,0-7.6,0c0-8.2,0-16.5,0-24.8
			c2.4,0,4.8,0,7.3,0c0,1.1,0,2.2,0,3.5c0.2-0.2,0.3-0.2,0.3-0.3c1.7-2.7,4.2-3.7,7.3-3.7c1.6,0,3.3,0.2,4.7,1
			c1.5,0.8,2.5,1.9,3.2,3.5c0.8,1.7,1,3.6,1,5.4c0.1,5.1,0.1,10.1,0.1,15.2C47.1,46.8,47,46.9,47,47.1z"/>
		<path class="st0" d="M18.2,22.3c0,8.2,0,16.4,0,24.7c-2.5,0-5,0-7.6,0c0-8.2,0-16.4,0-24.7C13,22.3,15.6,22.3,18.2,22.3z"/>
		<path class="st0" d="M18.7,14.2c0,2.5-2,4.5-4.5,4.5s-4.5-2-4.4-4.5c0-2.5,2-4.5,4.5-4.5S18.7,11.7,18.7,14.2z"/>
	</g>
</g>
</svg>
