<?xml version="1.0" encoding="utf-8"?>
<!-- Generator: Adobe Illustrator 24.2.3, SVG Export Plug-In . SVG Version: 6.00 Build 0)  -->
<svg version="1.1" id="Layer_1" xmlns="http://www.w3.org/2000/svg" xmlns:xlink="http://www.w3.org/1999/xlink" x="0px" y="0px"
	 viewBox="0 0 399 132.8" style="enable-background:new 0 0 399 132.8;" xml:space="preserve">
<style type="text/css">
	.st0{fill:#023135;}
</style>
<g>
	<g>
		<path class="st0" d="M41.2,60.2c-6.2,1.4-11.9,2-16.9,2c-5,0-9.7-0.6-12.7-1.9s-5.4-3.2-7.1-5.9c-1.7-2.7-2.9-5.9-3.5-9.6
			c-0.6-3.7-1-8.3-1-13.8C0,19.5,1.6,11.4,4.9,6.9C8.2,2.3,14.9,0,23.7,0c5.1,0,10.9,0.8,17.6,2.4L41,12.1
			c-5.8-0.9-10.7-1.3-14.6-1.5c-4-0.1-7.3,0.5-8.9,1.7c-1.6,1.1-2.9,3-3.7,5.9C13,21.1,12.6,26,12.6,33c0,7,0.8,11.8,2.4,14.5
			c1.6,2.7,5.6,4,10.4,4c4.9,0,10-0.4,15.5-1.2L41.2,60.2z"/>
	</g>
	<g>
		<path class="st0" d="M47.2,61.2L60.7,1.1h23.2l13.5,60.1H85.2l-2.4-10.9h-21l-2.4,10.9H47.2z M70.2,11.1l-6.1,28.6h16.4l-6.1-28.6
			H70.2z"/>
	</g>
	<g>
		<path class="st0" d="M115.5,41.1c0,7,3.6,10.5,10.7,10.5c7.1,0,10.7-3.5,10.7-10.5V1.1h12.2v39.8c0,7.4-1.9,12.8-5.7,16.2
			c-3.8,3.4-9.5,5.2-17.2,5.2c-7.7,0-13.4-1.7-17.2-5.2c-3.8-3.4-5.7-8.9-5.7-16.2V1.1h12.2V41.1z"/>
	</g>
	<g>
		<path class="st0" d="M179.2,10.6c-6.4,0-9.6,2.1-9.6,6.4c0,1.9,0.8,3.3,2.4,4.3c1.6,1,5.3,2.4,11.2,4.3c5.9,1.9,10,4,12.3,6.4
			c2.4,2.4,3.5,6.1,3.5,11c0,6.3-1.9,11.1-5.7,14.3c-3.8,3.2-8.8,4.9-15,4.9c-4.6,0-10.2-0.7-16.9-2.1l-3.2-0.6l1.2-9.5
			c7.9,1.1,13.9,1.6,18.1,1.6c6.2,0,9.4-2.6,9.4-7.8c0-1.9-0.7-3.4-2.2-4.4c-1.4-1.1-4.3-2.2-8.6-3.4c-6.8-1.9-11.7-4.3-14.5-6.9
			c-2.8-2.7-4.2-6.4-4.2-11.2c0-6,1.8-10.5,5.5-13.4c3.7-2.9,8.7-4.4,15-4.4c4.4,0,9.9,0.6,16.6,1.8l3.2,0.6l-1,9.6
			C188.5,11.1,182.6,10.6,179.2,10.6z"/>
	</g>
	<g>
		<path class="st0" d="M208.2,61.2V1.1h38.9v10.6h-26.7v14.1h21.4v10.4h-21.4v14.4h26.7v10.6H208.2z"/>
	</g>
	<g>
		<path class="st0" d="M282.1,61.2h-12.2V36.9L251.3,1.1h13.5l11.1,24l11.1-24h13.5l-18.4,35.8V61.2z"/>
	</g>
	<g>
		<path class="st0" d="M1.3,71.6h12.1l6.8,44.8H22l8.5-44.8h13.7l8.5,44.8h1.6l6.5-44.8h12.5l-10.4,60.1H44.4l-6.9-44.8l-7.3,44.8
			H11.7L1.3,71.6z"/>
	</g>
	<g>
		<path class="st0" d="M83.3,131.8V71.6h38.9v10.6H95.5v14.1h21.4v10.4H95.5v14.4h26.7v10.6H83.3z"/>
	</g>
	<g>
		<path class="st0" d="M151.6,81.2c-6.4,0-9.6,2.1-9.6,6.4c0,1.9,0.8,3.3,2.4,4.3c1.6,1,5.3,2.4,11.2,4.3c5.9,1.9,10,4,12.3,6.4
			c2.4,2.4,3.5,6.1,3.5,11c0,6.3-1.9,11.1-5.7,14.3c-3.8,3.2-8.8,4.9-15,4.9c-4.6,0-10.2-0.7-16.9-2.1l-3.2-0.6l1.2-9.5
			c7.9,1.1,13.9,1.6,18.1,1.6c6.2,0,9.4-2.6,9.4-7.8c0-1.9-0.7-3.4-2.2-4.4c-1.4-1.1-4.3-2.2-8.6-3.4c-6.8-1.9-11.7-4.3-14.5-6.9
			c-2.8-2.7-4.2-6.4-4.2-11.2c0-6,1.8-10.5,5.5-13.4c3.7-2.9,8.7-4.4,15-4.4c4.4,0,9.9,0.6,16.6,1.8l3.2,0.6l-1,9.6
			C160.9,81.7,155,81.2,151.6,81.2z"/>
	</g>
	<g>
		<path class="st0" d="M175.9,82.4V71.6h44.2v10.8h-15.9v49.3H192V82.4H175.9z"/>
	</g>
	<g>
		<path class="st0" d="M262.4,131.8h-34.2V71.6h12.2V121h22V131.8z"/>
	</g>
	<g>
		<path class="st0" d="M270,131.8V71.6h12.2v60.1H270z"/>
	</g>
	<g>
		<path class="st0" d="M294.2,131.8V71.6h21l14.5,49.5h0.9V71.6h11.8v60.1h-20.4l-15-49.5H306v49.5H294.2z"/>
	</g>
	<g>
		<path class="st0" d="M378.7,110.2V99.6h18.9v31.2c-8.4,1.4-15.3,2-20.5,2c-9.4,0-16.5-2.5-20-7.5c-3.5-5-5.3-13-5.3-23.9
			c0-10.9,1.8-18.8,5.5-23.6c3.7-4.8,10.6-7.3,19.4-7.3c5.5,0,11.4,0.6,17.8,1.9l3.2,0.6l-0.4,9.5c-7.1-0.8-12.9-1.1-17.4-1.1
			c-4.5,0-8.4,0.4-10.2,1.6c-1.8,1.2-3.2,3-4,5.9c-0.9,2.9-1.3,7.8-1.3,14.7c0,6.9,0.9,11.8,2.6,14.5c1.7,2.8,6,4.2,11.3,4.2
			c1.9,0,7.3-0.4,7.3-0.4v-11.7H378.7z"/>
	</g>
	<g>
		<rect x="316.4" y="27.2" class="st0" width="82.6" height="10.8"/>
	</g>
</g>
</svg>
